<?xml version="1.0" standalone="no"?>
<!DOCTYPE svg PUBLIC "-//W3C//DTD SVG 20010904//EN"
 "http://www.w3.org/TR/2001/REC-SVG-20010904/DTD/svg10.dtd">
<svg version="1.0" xmlns="http://www.w3.org/2000/svg"
 width="512.000000pt" height="512.000000pt" viewBox="0 0 512.000000 512.000000"
 preserveAspectRatio="xMidYMid meet">
<metadata>
Created by potrace 1.11, written by Peter Selinger 2001-2013
</metadata>
<g transform="translate(0.000000,512.000000) scale(0.100000,-0.100000)"
fill="#000000" stroke="none">
<path d="M3271 4549 c-76 -30 -284 -217 -350 -314 -15 -22 -58 -96 -96 -165
-38 -69 -101 -185 -142 -259 -63 -115 -73 -140 -74 -185 0 -38 -3 -46 -9 -31
-5 11 -9 36 -10 55 -1 61 -33 111 -181 280 -156 179 -168 193 -226 260 -21 25
-63 68 -93 95 -30 28 -85 80 -122 116 -79 78 -145 114 -195 104 -65 -12 -220
-193 -495 -580 -89 -125 -110 -159 -106 -172 5 -21 -16 -75 -34 -87 -23 -17
-54 -120 -73 -246 -21 -139 -121 -510 -179 -658 -49 -127 -49 -172 -5 -306 49
-147 143 -309 354 -616 105 -152 126 -190 105 -184 -3 1 -33 5 -68 8 -54 5
-71 3 -115 -19 -29 -13 -67 -38 -85 -55 -18 -16 -36 -30 -39 -30 -2 0 -24 19
-48 41 -61 59 -114 86 -161 85 -47 -2 -124 -24 -124 -35 0 -4 -7 -8 -15 -8
-26 0 -115 -46 -115 -59 0 -8 14 -17 32 -22 18 -4 28 -11 23 -14 -6 -3 -28 0
-50 8 -26 8 -52 10 -70 5 l-30 -8 30 -15 c32 -18 76 -61 119 -120 l28 -37 -47
-12 -47 -12 47 -43 c26 -24 56 -44 66 -44 11 0 19 -5 19 -11 0 -5 -4 -7 -10
-4 -21 13 -8 -9 39 -69 59 -74 65 -86 81 -156 13 -51 17 -351 6 -369 -7 -10
-17 -111 -12 -111 2 0 27 12 56 26 28 14 62 28 76 30 14 3 44 11 67 18 23 8
56 17 72 21 39 10 38 10 119 34 47 14 81 31 103 53 19 18 31 25 28 16 -5 -13
-2 -15 14 -11 11 3 26 11 32 19 6 8 17 14 24 14 14 0 167 69 175 79 11 14 51
4 74 -18 14 -13 33 -46 41 -72 15 -44 18 -47 40 -39 32 12 216 47 290 55 33 4
67 8 75 10 8 3 44 7 80 10 36 3 81 8 100 10 19 3 55 7 80 10 25 3 55 7 67 9
95 19 395 25 578 13 229 -16 262 -19 285 -22 14 -2 54 -7 90 -10 97 -11 112
-13 145 -19 34 -7 72 -13 130 -21 22 -4 47 -8 55 -10 8 -3 33 -7 55 -10 22 -4
47 -8 55 -10 8 -2 29 -7 45 -10 17 -2 41 -7 55 -10 87 -18 201 -38 235 -41 22
-2 47 -5 55 -6 60 -6 64 12 13 66 -35 36 -35 37 -8 19 17 -12 39 -30 49 -42
23 -26 45 -27 53 -3 3 9 16 31 28 47 25 35 62 112 105 215 l31 75 -56 54 c-31
30 -52 57 -47 60 6 3 53 35 105 71 112 76 109 70 111 270 1 69 5 130 9 137 4
6 9 33 12 60 2 26 8 71 12 98 5 28 6 74 3 103 -3 29 -2 56 2 60 4 4 10 49 13
100 5 75 3 92 -8 92 -8 0 -22 -9 -32 -20 -10 -11 -22 -20 -26 -20 -4 0 13 20
37 45 37 39 44 52 44 85 0 46 -8 49 -47 17 -15 -13 -50 -36 -77 -51 -26 -16
-56 -34 -65 -42 -9 -7 -36 -29 -59 -48 -24 -20 -47 -36 -50 -36 -4 0 -36 -27
-72 -60 -72 -66 -72 -66 -83 25 -7 54 -13 96 -23 148 -3 17 -8 142 -10 277 -4
249 2 306 39 401 24 60 14 104 -85 404 -69 209 -79 251 -83 327 -4 99 -11 116
-94 225 -32 43 -88 121 -124 173 -36 52 -93 124 -126 160 -34 35 -89 105 -123
155 -152 224 -205 267 -287 234z m-652 -1207 c7 -138 4 -523 -4 -572 -3 -25
-13 -67 -20 -95 -12 -47 -12 -79 -1 -185 3 -25 8 -79 11 -120 3 -41 8 -88 10
-105 2 -16 7 -68 10 -115 3 -47 8 -121 11 -165 14 -213 15 -222 36 -288 13
-41 11 -46 -22 -52 -13 -2 -37 -9 -55 -15 -20 -7 -41 -7 -56 -2 -13 5 -32 8
-41 7 -10 -2 -18 -1 -18 1 0 3 56 108 68 129 4 6 7 12 7 15 1 3 7 30 15 60 23
87 19 541 -5 656 -3 11 -7 43 -10 70 -3 27 -8 65 -11 84 -10 61 -13 112 -13
220 -1 111 0 126 25 280 3 24 18 101 28 145 2 12 7 46 11 78 4 31 10 57 14 57
3 0 8 -39 10 -88z m-1269 -2557 c-7 -8 -18 -15 -24 -15 -6 0 -2 7 8 15 25 19
32 19 16 0z"/>
</g>
</svg>
